# xmcd CD database file
#
# Track frame offsets:
#	150
#	19839
#	40274
#	59142
#	82952
#	102451
#	122927
#	143324
#	164677
#	185483
#	206584
#	226533
#
# Disc length: 3259 seconds
#
# Revision: 0
# Processed by: cddbd v1.5.2PL0 Copyright (c) Steve Scherf et al.
# Submitted via: NeoAudio 9.9.9
#
DISCID=a10cb90c
DTITLE=Victor Hugo - Que Pasa
DYEAR=2007
DGENRE=Salsa
TTITLE0=Si supieras
TTITLE1=Como quieres que te quiera
TTITLE2=Siempre seras
TTITLE3=Uno
TTITLE4=Buscando rumbas
TTITLE5=Island girl
TTITLE6=Ella
TTITLE7=Que pasa
TTITLE8=Oye latino
TTITLE9=Ci sono giorni
TTITLE10=Te llamo
TTITLE11=Korin gabe
EXTD=YEAR: 2007
EXTT0=
EXTT1=
EXTT2=
EXTT3=
EXTT4=
EXTT5=
EXTT6=
EXTT7=
EXTT8=
EXTT9=
EXTT10=
EXTT11=
PLAYORDER=
